<?xml version="1.0" encoding="utf-8"?>
<!-- Generator: Adobe Illustrator 24.0.1, SVG Export Plug-In . SVG Version: 6.00 Build 0)  -->
<svg version="1.1" id="Camada_1" xmlns="http://www.w3.org/2000/svg" xmlns:xlink="http://www.w3.org/1999/xlink" x="0px" y="0px"
	 viewBox="0 0 612 792" style="enable-background:new 0 0 612 792;" xml:space="preserve">
<style type="text/css">
	.st0{fill:#121331;}
	.st1{fill:#FEFEFE;}
	.st2{fill:#4A4B61;}
	.st3{fill:#AF5145;}
	.st4{fill:#AE5045;}
	.st5{fill:#372235;}
	.st6{fill:#3C2436;}
	.st7{fill:#3A2336;}
	.st8{fill:#B35246;}
	.st9{fill:#462737;}
	.st10{fill:#B35345;}
	.st11{fill:#0E1131;}
	.st12{fill:#1F1832;}
	.st13{fill:#472737;}
	.st14{fill:#362236;}
	.st15{fill:#0C1030;}
	.st16{fill:#2B1C34;}
	.st17{fill:#221933;}
	.st18{fill:#352236;}
	.st19{fill:#382236;}
	.st20{fill:#161531;}
	.st21{fill:#141431;}
	.st22{fill:#B45345;}
	.st23{fill:#552E39;}
</style>
<g>
	<path class="st0" d="M555.38,349.94c0,30.74,0,61.48,0,92.23c-1.32,1.04-2.89,0.74-4.37,0.74c-163.3,0.01-326.61,0.01-489.91,0.01
		c-4.52,0-4.53-0.03-4.53-4.6c0-28.23,0-56.46,0.01-84.69c0-1.24-0.22-2.5,0.25-3.71c1.32-0.64,2.73-0.32,4.1-0.32
		c163.46-0.02,326.92-0.02,490.37,0C552.66,349.59,554.07,349.25,555.38,349.94z"/>
	<path class="st1" d="M57.06,349.98c-0.04,29.97-0.06,59.95-0.16,89.92c-0.01,2.02,0.64,2.7,2.57,2.44
		c0.62-0.08,1.26-0.01,1.89-0.01c163.29,0,326.59,0,489.88-0.01c1.38,0,2.76-0.1,4.14-0.15c-0.31,0.47,0.74,1.59-0.76,1.51
		c-0.88-0.05-1.76-0.01-2.65-0.01c-164.13,0-328.26-0.01-492.39,0.07c-2.84,0-3.49-0.63-3.48-3.44c0.12-29.37,0.06-58.73,0.12-88.1
		c0-0.97-0.85-2.32,0.71-3c0.28,0.14,0.39,0.3,0.33,0.49C57.21,349.88,57.14,349.98,57.06,349.98z"/>
	<path class="st2" d="M57.06,349.98c-0.04-0.26-0.08-0.52-0.12-0.79c165.01,0,330.02,0,495.04,0.05c1.11,0,2.56-0.86,3.4,0.7
		c-164.34,0-328.68,0-493.03,0C60.59,349.94,58.83,349.97,57.06,349.98z"/>
	<path class="st3" d="M193.93,392.55c-1.48,2.11-3.01,4.18-4.41,6.33c-1,1.54-1.72,1.95-2.86,0.08c-1.34-2.19-2.91-4.24-4.48-6.48
		c-0.32,0.53-0.5,0.71-0.53,0.91c-0.36,2.18,1.06,5.3-0.77,6.39c-2.5,1.49-5.89,0.43-8.89,0.48c-1.61,0.03-1.69-1.16-1.69-2.34
		c0-9.37,0-18.74,0.01-28.11c0-0.73-0.11-1.52,0.51-2.1c1.31-1.23,10.2-0.36,11.35,1.18c1.42,1.91,2.85,3.83,4.05,5.88
		c1.49,2.54,2.62,2.11,3.82-0.14c0.29-0.55,0.82-0.99,1.03-1.56c2.3-6.04,7.21-6.37,12.62-5.83c1.57,0.15,2.25,0.67,2.25,2.26
		c-0.03,9.49-0.01,18.99-0.03,28.48c0,0.84,0.15,2.08-0.99,2.13c-3.13,0.14-6.28,0.15-9.41-0.04c-1.06-0.06-0.86-1.36-0.87-2.2
		c-0.03-1.69-0.01-3.39-0.01-5.08C194.4,392.69,194.16,392.62,193.93,392.55z"/>
	<path class="st3" d="M323.93,400.17c-8.3,1.62-14.61-1.73-19.42-8.3c-0.55,0.66-0.81,0.83-0.82,1.01
		c-0.49,7.74-0.48,7.65-8.43,7.47c-2.3-0.05-3.08-0.77-3.03-3.04c0.13-5.12,0.06-10.24,0.03-15.36c-0.01-1.55,0.44-3.21-2.06-3.64
		c-1.9-0.33-1.12-2.25-1.14-3.49c-0.15-7.58-0.12-7.58,7.41-7.58c4.66,0,9.32,0.07,13.98-0.02c5.49-0.1,9.59,2.16,11.76,7.14
		c2.12,4.89,0.85,9.28-3,12.94c-0.27,0.26-0.51,0.55-0.73,0.85c-0.06,0.08-0.01,0.23-0.01,0.61c1.46,0.57,3.06,0.21,4.62,0.24
		C325.51,391.26,325.9,396.3,323.93,400.17z"/>
	<path class="st3" d="M325.59,367.24c9.98,0.02,19.95,0.04,29.93,0.06c2.41,3.41,1.15,7.1,0.88,10.73
		c-0.22,0.42-0.54,0.75-0.94,1.01c-5.89,0.15-11.74-0.53-16.53-0.26c2.07,0.21,5.28-0.06,8.48,0.03c1.48,0.04,3.05-0.25,4.23,1.02
		c1.3,2.51,1.26,5.03,0.09,7.56c-1.33,1.59-3.18,1.11-4.87,1.14c-2.95,0.05-5.89,0.02-7.69,0.01c3.22-0.22,7.58,0.42,11.94-0.34
		c2.04-0.63,3.84-0.42,5.18,1.44c0.57,3.54,1.41,7.11-0.6,10.51l0-0.01c-4.34,0.84-8.73,0.27-13.09,0.37
		c-5.02,0.11-10.04-0.01-15.06,0.04c-1.6,0.02-2.87-0.33-2.78-2.15C325.3,388.03,324.54,377.61,325.59,367.24z"/>
	<path class="st3" d="M357.36,367.28c4.27-0.01,8.54-0.05,12.8-0.01c8.77,0.08,15.86,5.56,17.22,13.27
		c1.55,8.74-2.96,16.12-11.73,19.2c-0.35,0.12-0.7,0.28-1.05,0.42c-5.35,0.87-10.74,0.19-16.11,0.37c-1.5,0.05-1.94-0.94-1.99-2.18
		c-0.39-9.94-0.4-19.88,0.09-29.82C356.63,368.04,356.98,367.63,357.36,367.28z"/>
	<path class="st3" d="M207.39,381.21c0.77-7.05,6.38-12.68,13.76-13.8c7.29-1.11,14.68,3.11,17.65,10.05
		c2.95,6.91,0.83,14.93-5.22,19.47c-4.9,3.68-10.36,4.49-16.03,2.24c-5.58-2.21-9.43-6.09-10.14-12.36
		C206.89,384.96,206.93,383.09,207.39,381.21z"/>
	<path class="st3" d="M137.29,384.08c-0.09,9.23-7.33,16.28-16.66,16.21c-9.04-0.07-16.7-7.74-16.51-16.54
		c0.19-9.14,7.65-16.51,16.65-16.47C130.14,367.33,137.37,374.68,137.29,384.08z"/>
	<path class="st3" d="M260.27,378.48c1.08,1.88,2.81,2.23,4.01,3.25c3.81,3.21,5.09,7.26,3.58,11.7c-1.38,4.03-5.14,6.73-9.83,6.83
		c-4.78,0.1-9.56-0.02-14.34,0.06c-1.85,0.03-2.64-0.51-2.79-2.51c-0.62-8.72-0.69-8.72,7.89-8.74c1.1,0,2.21,0,3.74,0
		c-0.93-1.85-2.54-2.15-3.64-3.01c-3.75-2.94-5.26-7.09-3.98-11.24c1.28-4.15,4.93-7.26,9.41-7.47c5.02-0.23,10.06-0.08,15.09-0.09
		c0.25,0,0.57-0.07,0.74,0.04c3.51,2.35,0.91,5.86,1.62,8.76c0.41,1.67-0.56,2.48-2.35,2.44
		C266.48,378.43,263.52,378.48,260.27,378.48z"/>
	<path class="st3" d="M420.76,367.94c2.98-1.42,6.13-0.44,9.19-0.61c1.34-0.07,1.54,1.03,1.55,2.09c0.01,1.49,0.01,2.99,0.01,4.48
		c0,5.8,0.11,5.84,5.83,5.44c1.73-0.12,2.52-0.66,2.46-2.43c-0.07-2.11,0.13-4.25-0.04-6.35c-0.22-2.69,0.97-3.53,3.53-3.36
		c2.5,0.17,5.02,0.06,7.54,0.08c1.27,0.95,1.29,2.34,1.29,3.72c0.03,8.57,0.04,17.15-0.01,25.72c-0.01,1.25-0.03,2.51-1.12,3.42
		c-2.76,0.05-5.53-0.01-8.28,0.17c-2.41,0.16-3.1-0.91-2.94-3.09c0.12-1.61-0.18-3.27,0.06-4.85c0.55-3.67-1.22-4.32-4.48-4.27
		c-2.92,0.04-4.14,0.83-3.88,3.84c0.19,2.22-0.05,4.47-0.09,6.71c-2.72,1.4-5.63,0.65-8.45,0.64c-2.08-0.01-2.18-1.69-2.15-3.23
		c0.15-6.18-0.25-12.37,0.27-18.56C421.3,374.36,421.55,371.11,420.76,367.94z"/>
	<path class="st3" d="M150.36,388.87c-1.99-1.38-3.13-2.12-4.22-2.93c-3.58-2.65-5.05-6.15-4.04-10.51c1.02-4.39,4.45-7.71,8.92-8
		c5.27-0.34,10.58-0.13,15.87-0.16c1.09-0.01,2.09,0.23,2.11,1.56c0.04,2.75,0.1,5.5-0.03,8.24c-0.07,1.63-1.52,1.38-2.61,1.4
		c-2.72,0.03-5.45,0.01-8.42,0.68c1.07,0.74,2.14,1.46,3.19,2.22c3.94,2.84,5.55,7.28,4.19,11.5c-1.43,4.43-5.1,7.28-9.83,7.38
		c-4.79,0.11-9.58-0.02-14.37,0.07c-1.94,0.03-2.57-0.67-2.68-2.61c-0.49-8.59-0.55-8.58,7.94-8.65
		C147.37,389.06,148.34,388.98,150.36,388.87z"/>
	<path class="st3" d="M407.94,379.16c1.14,0.75,2.32,1.47,3.43,2.27c3.97,2.88,5.5,7.15,4.15,11.5c-1.37,4.43-4.97,7.21-9.85,7.33
		c-4.66,0.12-9.32-0.02-13.98,0.07c-2,0.04-2.88-0.51-2.99-2.71c-0.43-8.48-0.51-8.47,8.07-8.55c0.96-0.01,1.93-0.11,3.16-0.18
		c-0.69-1.54-2.04-1.77-2.99-2.45c-4.08-2.92-5.78-7.1-4.57-11.39c1.26-4.45,5.14-7.57,10.02-7.74c4.78-0.16,9.57,0.01,14.36-0.08
		c1.98-0.04,2.53,0.77,2.64,2.66c0.48,8.6,0.54,8.6-7.95,8.6c-1.11,0-2.22,0-3.32,0C408.06,378.71,408,378.94,407.94,379.16z"/>
	<path class="st3" d="M490.31,379.96c0.03,8.27,0.03,8.23-8.17,8.28c-7.29,0.04-6.26-0.91-6.35,6.37c-0.01,1.12-0.06,2.24,0,3.36
		c0.1,1.81-0.8,2.41-2.51,2.35c-2.88-0.1-5.77-0.1-8.65-0.14c-1.08-0.91-1.1-2.18-1.1-3.42c-0.04-8.68-0.04-17.37,0-26.05
		c0.01-1.26,0.14-2.49,1.23-3.37l-0.07-0.06c0.79-0.78,1.8-0.82,2.81-0.82c8.18-0.02,16.35-0.02,24.53,0c1.01,0,2.02,0.04,2.82,0.8
		l-0.08,0.07c1.97,3.68,1.84,7.38,0.09,11.09l0.03,0.03c-5.56,0.95-11.14,0.05-16.39,0.39c2.63-0.01,5.59-0.02,8.55,0
		C488.24,378.83,489.59,378.52,490.31,379.96z"/>
	<path class="st3" d="M94.69,400.31c-2.37-0.11-5.15,0.22-7.86-0.62c-7.95-2.46-12.79-9.97-11.71-18.26
		c1-7.67,7.68-13.71,15.77-14.11c3.14-0.16,6.29,0.04,9.44-0.08c2.06-0.07,2.83,0.61,2.93,2.76c0.37,8.5,0.45,8.49-8.05,8.51
		c-1.38,0-2.81-0.14-4.14,0.12c-2.9,0.57-4.81,2.26-4.7,5.39c0.12,3.1,1.96,4.82,5.03,5c2.76,0.16,5.55,0.24,8.3,0.02
		c2.94-0.24,3.59,0.96,3.57,3.66C103.2,400.31,103.31,400.31,94.69,400.31z"/>
	<path class="st3" d="M505.49,379.15c-2.92-1.38-6.06-0.25-9.05-0.75c-1.25-3.7-1.4-7.39,0.07-11.07l-0.08-0.07
		c0.79-0.78,1.8-0.81,2.81-0.82c8.18-0.02,16.36-0.02,24.54,0c1.02,0,2.03,0.04,2.81,0.83c0.06,0.49,0.18,0.99,0.18,1.48
		c-0.02,2.86,0.84,6.17-0.33,8.46c-1.45,2.86-5.21,0.65-7.87,1.33c-0.58,0.15-1.11,0.52-1.66,0.79c-1.15,5.13-0.29,10.32-0.47,15.47
		c-0.16,4.6-0.04,4.66-4.84,4.6c-1.83-0.02-3.78,0.5-5.46-0.73c-0.05-5.19-0.07-10.38-0.15-15.57
		C505.98,381.78,506.38,380.37,505.49,379.15L505.49,379.15z"/>
	<path class="st4" d="M452.65,367.27c3.44,0.01,6.87,0.02,10.31,0.03c0.27,0.42,0.43,0.87,0.46,1.36
		c0.11,8.56,0.06,17.12,0.03,25.68c-0.02,4.76-0.68,5.43-5.4,5.42c-1.95-0.01-4.04,0.51-5.78-0.92c-0.98-2.26-0.46-4.64-0.49-6.96
		c-0.08-6.8-0.05-13.6-0.01-20.4C451.79,370.04,451.4,368.47,452.65,367.27z"/>
	<path class="st5" d="M452.65,367.27c-0.04,10.47-0.07,20.94-0.11,31.41c0.27,0.25,0.57,0.46,0.91,0.61
		c2.8,0.29,5.61,0.07,8.41,0.13c0.39-0.03,0.77,0,1.15,0.08c0.17,0.09,0.34,0.18,0.51,0.27c0.12,0.15,0.24,0.3,0.36,0.45
		c-4.31,1.21-8.6,1.1-12.9-0.07c-0.06-10.95-0.11-21.91-0.17-32.86C451.43,367.29,452.04,367.28,452.65,367.27z"/>
	<path class="st6" d="M325.59,367.24c-0.07,10.19-0.11,20.39-0.25,30.58c-0.03,2.5,1.55,2.38,3.25,2.37
		c9.03-0.02,18.07-0.03,27.1-0.04c-0.09,0.09-0.17,0.25-0.27,0.25c-10.51,0.71-21.01,1.16-31.5-0.24c-0.43-3.7,0.95-7.55-0.86-11.15
		c1.91-0.42,1.57-1.95,1.58-3.26c0.02-4.93-0.03-9.87,0.03-14.8C324.69,369.69,324.14,368.2,325.59,367.24z"/>
	<path class="st7" d="M357.36,367.28c-0.07,10.18-0.1,20.35-0.23,30.53c-0.03,2.11,1.09,2.43,2.83,2.41
		c4.88-0.06,9.77-0.04,14.65-0.06c-6.31,1.3-12.61,1.23-18.92,0.01c0-3.48,0-6.95-0.01-10.43c-0.98-3.79-0.84-7.58-0.03-11.37
		c-0.05-3.69-0.09-7.37-0.14-11.06C356.13,367.3,356.75,367.29,357.36,367.28z"/>
	<path class="st8" d="M420.76,367.94c1.13,1.13,0.73,2.57,0.73,3.9c0.03,7.71,0.15,15.42-0.05,23.13c-0.08,3.04,1.01,4.01,3.91,3.75
		c1.99-0.18,4.01-0.04,6.02-0.04c0,0.25,0,0.5,0,0.75c-3.22,1.06-6.63-0.32-9.86,0.74c-1.48-0.15-1.27-1.3-1.27-2.24
		C420.19,387.93,420.16,377.93,420.76,367.94z"/>
	<path class="st9" d="M462.96,368.05c0-0.25,0-0.5,0-0.76c0.6,0.01,1.19,0.02,1.79,0.03c-0.04,10.95-0.08,21.9-0.12,32.85
		c-0.25,0.02-0.49,0.04-0.74,0.05c0,0-0.03-0.1-0.03-0.1c-1.12-1.13-0.72-2.57-0.73-3.89c-0.06-9.16,0.05-18.33-0.06-27.5
		C463.02,368.52,462.99,368.28,462.96,368.05z"/>
	<path class="st10" d="M506.16,398.68c9.9,0.01,9.88,0.01,9.91-9.69c0.01-3.22,0.13-6.43,0.21-9.65c0-0.05,0.2-0.13,0.3-0.13
		c0.12,0,0.23,0.08,0.35,0.13c0.03,6.09,0.08,12.19,0.08,18.28c0,0.93,0.32,2.06-0.96,2.55c-3.23-1.06-6.65,0.32-9.89-0.74
		C506.16,399.18,506.16,398.93,506.16,398.68z"/>
	<ellipse class="st11" cx="340.2" cy="366.06" rx="20.59" ry="0.26"/>
	<path class="st11" d="M464.62,366.44c0.55-0.59,1.27-0.74,2.04-0.74c8.73,0,17.46,0,26.18,0c0.77,0,1.49,0.14,2.04,0.74
		c-5.72,0.83-11.46,0.29-17.19,0.33C473.33,366.79,468.95,367.24,464.62,366.44z"/>
	<path class="st11" d="M496.39,366.44c0.55-0.59,1.27-0.74,2.04-0.74c8.73,0,17.46,0,26.18,0c0.77,0,1.49,0.14,2.04,0.74
		c-5.72,0.83-11.46,0.29-17.19,0.33C505.1,366.79,500.72,367.24,496.39,366.44z"/>
	<path class="st12" d="M464.62,366.44c10.08,0,20.17,0,30.25,0c-0.01,0.27-0.03,0.54-0.04,0.82c-10.05,0-20.1,0.01-30.16,0.01
		C464.66,366.99,464.64,366.71,464.62,366.44z"/>
	<path class="st12" d="M496.39,366.44c10.08,0,20.17,0,30.25,0c-0.01,0.28-0.02,0.56-0.04,0.84c-10.06,0-20.11-0.01-30.16-0.01
		C496.42,366.99,496.4,366.71,496.39,366.44z"/>
	<ellipse class="st11" cx="300.87" cy="366.06" rx="15.25" ry="0.26"/>
	<path class="st13" d="M496.51,367.33c-0.02,3.69-0.05,7.38-0.07,11.07c-0.53,0-1.07,0.01-1.6,0.01c-0.03-3.7-0.06-7.39-0.09-11.09
		C495.34,367.32,495.93,367.33,496.51,367.33z"/>
	<path class="st11" d="M505.48,379.14c0,6.68,0,13.36,0,20.04C505.21,392.5,503.69,385.8,505.48,379.14
		C505.49,379.15,505.48,379.14,505.48,379.14z"/>
	<path class="st14" d="M490.31,379.96c-4.46-1.48-9.17,0.07-13.68-1.52c6.08,0,12.16,0,18.24,0
		C493.69,379.92,491.49,378.45,490.31,379.96z"/>
	<path class="st15" d="M369.13,422.02c-3.91,0.01-7.82,0.03-11.74,0.04c-0.07-1.57,1.15-0.84,1.76-0.85c3.5-0.06,7-0.01,10.5,0.02
		c0.07,0,0.15,0.14,0.22,0.21C369.62,421.63,369.37,421.83,369.13,422.02z"/>
	<path class="st15" d="M233.01,422.05c-3.93,0-7.86-0.01-11.79-0.01c1.03-1.74,2.7-0.75,4.04-0.81c2.58-0.12,5.18,0.09,7.77,0.17
		c0.05,0,0.12,0.2,0.12,0.3C233.14,421.82,233.06,421.94,233.01,422.05z"/>
	<path class="st16" d="M343.57,429.5c0.03,0.21,0.08,0.41,0.13,0.62c-0.57,0-1.14,0-1.72,0c0.6-2.45-1.33-4.39-1.39-6.7
		c0.51-0.24,1.02-0.49,1.53-0.73c0.08,0.8-0.1,1.68,0.73,2.24C343.79,426.34,342.67,428.08,343.57,429.5z"/>
	<path class="st3" d="M421.51,400.17c3.18-1.59,6.58-0.35,9.86-0.74C428.2,401.23,424.8,400.02,421.51,400.17z"/>
	<path class="st3" d="M506.16,399.43c3.28,0.39,6.69-0.85,9.89,0.74C512.74,400.02,509.34,401.22,506.16,399.43z"/>
	<path class="st3" d="M207.39,381.21c0.01,1.87,0.02,3.74,0.02,5.61C206.49,384.96,206.45,383.09,207.39,381.21z"/>
	<path class="st17" d="M307.2,380.63c-1.43-0.35-3.68,0.75-3.6-1.97c0.07-2.41,2.07-1.49,3.39-1.71c0.12-0.02,0.25-0.02,0.37,0
		c1.58,0.24,4.21-0.74,4.22,1.69C311.59,381.3,308.81,380.25,307.2,380.63z"/>
	<path class="st0" d="M355.66,378.37c1.36,3.79,1.1,7.58,0.03,11.37c-1.41-0.87-3.02-0.58-4.54-0.75c-0.43-0.54-0.41-1.08-0.03-1.63
		c-0.02-2.44-0.04-4.88-0.06-7.32c-0.17-1.1,0.6-1.12,1.38-1.23c1.08-0.14,2.26,0.41,3.25-0.43L355.66,378.37z"/>
	<path class="st18" d="M355.68,378.38c-1.16,1.59-3.47,0.04-4.63,1.66c-4.57-1.66-9.4-0.01-14.04-1.66
		C343.24,378.38,349.46,378.38,355.68,378.38z"/>
	<path class="st19" d="M351.11,387.35c0.01,0.54,0.02,1.09,0.03,1.63c-4.73,0-9.45,0-14.18,0
		C341.6,387.31,346.53,389.23,351.11,387.35z"/>
	<path class="st20" d="M367.86,383.83c0.89-1.85-1.56-5.2,2.72-5.34c3.42-0.11,5.79,2.18,5.7,5.51c-0.08,3.15-2.34,5.14-5.71,5.07
		C366.19,389,368.82,385.59,367.86,383.83z"/>
	<path class="st21" d="M228.73,383.79c0.02,2.97-2.21,5.22-5.21,5.25c-2.85,0.03-5.4-2.41-5.39-5.16c0.01-2.79,2.52-5.34,5.28-5.35
		C226.18,378.53,228.71,381.02,228.73,383.79z"/>
	<path class="st21" d="M126.1,383.84c0.05,2.85-2.29,5.17-5.22,5.21c-2.83,0.03-5.42-2.35-5.48-5.04c-0.07-2.92,2.54-5.53,5.48-5.49
		C123.67,378.56,126.05,380.99,126.1,383.84z"/>
	<path class="st22" d="M476,386.68c2.86,0,4.8,0,6.74,0c5.67,0,5.67,0,6.43-5.05c0.96,5.59,0.8,5.79-4.48,5.79
		c-2.37,0-4.74-0.01-7.11-0.04C477.37,387.38,477.15,387.2,476,386.68z"/>
	<path class="st8" d="M452.54,399.43c0-0.25,0-0.5,0-0.75c9.81-0.01,9.81-0.01,9.81-9.81c0-5.74-0.02-11.48,0.01-17.23
		c0.01-1.21-0.34-2.52,0.6-3.59c0,0,0.19-0.12,0.19-0.12c0.47,10.73,0.72,21.47-0.13,32.2l-0.35,0.02l-0.35-0.05
		C459.1,399.23,455.74,400.41,452.54,399.43z"/>
	<path class="st23" d="M463.02,402.13c0.04-10.73,0.08-21.46,0.13-32.2c1.08,1.15,0.7,2.58,0.7,3.91c0.02,9.43,0.01,18.86,0,28.29
		C463.57,402.13,463.3,402.13,463.02,402.13z"/>
	<path class="st4" d="M452.54,399.43c3.25,0.36,6.6-0.77,9.78,0.67C459.05,399.9,455.7,401.07,452.54,399.43z"/>
</g>
</svg>
